<mxfile host="app.diagrams.net" modified="2021-08-29T22:28:38.016Z" agent="5.0 (Windows NT 10.0; Win64; x64) AppleWebKit/537.36 (KHTML, like Gecko) Chrome/92.0.4515.159 Safari/537.36" etag="sdfORdBqu-K5a5mB6nCU" version="14.9.8" type="github" pages="2">
  <diagram id="Zv4XaZdafVckANZ4WzDw" name="Page-1">
    <mxGraphModel dx="1697" dy="687" grid="1" gridSize="10" guides="1" tooltips="1" connect="1" arrows="1" fold="1" page="1" pageScale="1" pageWidth="850" pageHeight="1100" math="0" shadow="0">
      <root>
        <mxCell id="0" />
        <mxCell id="1" parent="0" />
        <mxCell id="YOoRQR9oSNAo5L_Xjrxo-3" style="edgeStyle=orthogonalEdgeStyle;rounded=0;orthogonalLoop=1;jettySize=auto;html=1;exitX=0;exitY=0.5;exitDx=0;exitDy=0;" parent="1" source="YOoRQR9oSNAo5L_Xjrxo-1" edge="1">
          <mxGeometry relative="1" as="geometry">
            <mxPoint y="70" as="targetPoint" />
          </mxGeometry>
        </mxCell>
        <mxCell id="YOoRQR9oSNAo5L_Xjrxo-1" value="Core layer" style="rounded=0;whiteSpace=wrap;html=1;" parent="1" vertex="1">
          <mxGeometry x="10" y="40" width="100" height="60" as="geometry" />
        </mxCell>
        <mxCell id="YOoRQR9oSNAo5L_Xjrxo-2" value="amount of layers" style="rounded=0;whiteSpace=wrap;html=1;" parent="1" vertex="1">
          <mxGeometry x="140" y="40" width="120" height="60" as="geometry" />
        </mxCell>
        <mxCell id="YOoRQR9oSNAo5L_Xjrxo-4" value="amount of layers" style="rounded=0;whiteSpace=wrap;html=1;" parent="1" vertex="1">
          <mxGeometry x="140" y="110" width="120" height="60" as="geometry" />
        </mxCell>
        <mxCell id="YOoRQR9oSNAo5L_Xjrxo-5" value="amount of layers" style="rounded=0;whiteSpace=wrap;html=1;" parent="1" vertex="1">
          <mxGeometry x="140" y="180" width="120" height="60" as="geometry" />
        </mxCell>
        <mxCell id="YOoRQR9oSNAo5L_Xjrxo-9" value="" style="endArrow=none;html=1;entryX=0;entryY=0.5;entryDx=0;entryDy=0;exitX=1;exitY=0.5;exitDx=0;exitDy=0;" parent="1" source="YOoRQR9oSNAo5L_Xjrxo-1" target="YOoRQR9oSNAo5L_Xjrxo-2" edge="1">
          <mxGeometry width="50" height="50" relative="1" as="geometry">
            <mxPoint x="220" y="620" as="sourcePoint" />
            <mxPoint x="270" y="570" as="targetPoint" />
            <Array as="points" />
          </mxGeometry>
        </mxCell>
        <mxCell id="YOoRQR9oSNAo5L_Xjrxo-20" value="amount of layers" style="rounded=0;whiteSpace=wrap;html=1;" parent="1" vertex="1">
          <mxGeometry x="140" y="250" width="120" height="60" as="geometry" />
        </mxCell>
        <mxCell id="YOoRQR9oSNAo5L_Xjrxo-23" value="amount of layers" style="rounded=0;whiteSpace=wrap;html=1;" parent="1" vertex="1">
          <mxGeometry x="140" y="250" width="120" height="60" as="geometry" />
        </mxCell>
        <mxCell id="YOoRQR9oSNAo5L_Xjrxo-24" value="amount of layers" style="rounded=0;whiteSpace=wrap;html=1;" parent="1" vertex="1">
          <mxGeometry x="140" y="180" width="120" height="60" as="geometry" />
        </mxCell>
        <mxCell id="YOoRQR9oSNAo5L_Xjrxo-25" value="amount of layers" style="rounded=0;whiteSpace=wrap;html=1;" parent="1" vertex="1">
          <mxGeometry x="320" y="40" width="120" height="60" as="geometry" />
        </mxCell>
        <mxCell id="YOoRQR9oSNAo5L_Xjrxo-26" value="amount of layers" style="rounded=0;whiteSpace=wrap;html=1;" parent="1" vertex="1">
          <mxGeometry x="320" y="110" width="120" height="60" as="geometry" />
        </mxCell>
        <mxCell id="YOoRQR9oSNAo5L_Xjrxo-27" value="amount of layers" style="rounded=0;whiteSpace=wrap;html=1;" parent="1" vertex="1">
          <mxGeometry x="320" y="250" width="120" height="60" as="geometry" />
        </mxCell>
        <mxCell id="YOoRQR9oSNAo5L_Xjrxo-28" value="amount of layers" style="rounded=0;whiteSpace=wrap;html=1;" parent="1" vertex="1">
          <mxGeometry x="320" y="180" width="120" height="60" as="geometry" />
        </mxCell>
        <mxCell id="YOoRQR9oSNAo5L_Xjrxo-39" style="edgeStyle=orthogonalEdgeStyle;rounded=0;orthogonalLoop=1;jettySize=auto;html=1;entryX=1;entryY=0.5;entryDx=0;entryDy=0;exitX=1;exitY=0.5;exitDx=0;exitDy=0;" parent="1" source="YOoRQR9oSNAo5L_Xjrxo-29" target="YOoRQR9oSNAo5L_Xjrxo-31" edge="1">
          <mxGeometry relative="1" as="geometry">
            <mxPoint x="200" y="430" as="sourcePoint" />
            <Array as="points">
              <mxPoint x="280" y="430" />
              <mxPoint x="280" y="760" />
            </Array>
          </mxGeometry>
        </mxCell>
        <mxCell id="YOoRQR9oSNAo5L_Xjrxo-29" value="Base implementation" style="rounded=0;whiteSpace=wrap;html=1;" parent="1" vertex="1">
          <mxGeometry y="400" width="160" height="60" as="geometry" />
        </mxCell>
        <mxCell id="YOoRQR9oSNAo5L_Xjrxo-31" value="Augmenter" style="rounded=0;whiteSpace=wrap;html=1;" parent="1" vertex="1">
          <mxGeometry y="720" width="160" height="80" as="geometry" />
        </mxCell>
        <mxCell id="YOoRQR9oSNAo5L_Xjrxo-40" style="edgeStyle=orthogonalEdgeStyle;rounded=0;orthogonalLoop=1;jettySize=auto;html=1;exitX=1;exitY=0.5;exitDx=0;exitDy=0;" parent="1" source="YOoRQR9oSNAo5L_Xjrxo-32" edge="1">
          <mxGeometry relative="1" as="geometry">
            <mxPoint x="161" y="748" as="targetPoint" />
            <Array as="points">
              <mxPoint x="260" y="510" />
              <mxPoint x="260" y="748" />
            </Array>
          </mxGeometry>
        </mxCell>
        <mxCell id="YOoRQR9oSNAo5L_Xjrxo-32" value="n amount of modifiers" style="rounded=0;whiteSpace=wrap;html=1;" parent="1" vertex="1">
          <mxGeometry y="480" width="160" height="60" as="geometry" />
        </mxCell>
        <mxCell id="YOoRQR9oSNAo5L_Xjrxo-34" value="n amount of modifiers" style="rounded=0;whiteSpace=wrap;html=1;" parent="1" vertex="1">
          <mxGeometry y="560" width="160" height="60" as="geometry" />
        </mxCell>
      </root>
    </mxGraphModel>
  </diagram>
  <diagram id="_iGNsCahGJwW4kWzwlXy" name="Page-2">
    <mxGraphModel dx="1023" dy="830" grid="1" gridSize="10" guides="1" tooltips="1" connect="1" arrows="1" fold="1" page="1" pageScale="1" pageWidth="1920" pageHeight="1200" math="0" shadow="0">
      <root>
        <mxCell id="nadW0IsCXPA7-B_XMFtG-0" />
        <mxCell id="nadW0IsCXPA7-B_XMFtG-1" parent="nadW0IsCXPA7-B_XMFtG-0" />
        <mxCell id="EvSk-rvQm_N_wr-4obPq-6" value="" style="edgeStyle=orthogonalEdgeStyle;orthogonalLoop=1;jettySize=auto;html=1;exitX=1;exitY=0.5;exitDx=0;exitDy=0;entryX=0;entryY=0.5;entryDx=0;entryDy=0;rounded=1;fontFamily=Verdana;fontSize=10;" edge="1" parent="nadW0IsCXPA7-B_XMFtG-1" source="EvSk-rvQm_N_wr-4obPq-0" target="EvSk-rvQm_N_wr-4obPq-1">
          <mxGeometry x="0.5" y="20" relative="1" as="geometry">
            <Array as="points">
              <mxPoint x="480" y="380" />
              <mxPoint x="480" y="300" />
            </Array>
            <mxPoint as="offset" />
          </mxGeometry>
        </mxCell>
        <mxCell id="EvSk-rvQm_N_wr-4obPq-7" value="" style="edgeStyle=orthogonalEdgeStyle;orthogonalLoop=1;jettySize=auto;html=1;exitX=1;exitY=0.5;exitDx=0;exitDy=0;entryX=0;entryY=0.5;entryDx=0;entryDy=0;rounded=1;fontFamily=Verdana;fontSize=10;" edge="1" parent="nadW0IsCXPA7-B_XMFtG-1" source="EvSk-rvQm_N_wr-4obPq-0" target="EvSk-rvQm_N_wr-4obPq-2">
          <mxGeometry x="0.5" y="20" relative="1" as="geometry">
            <Array as="points">
              <mxPoint x="480" y="380" />
              <mxPoint x="480" y="460" />
            </Array>
            <mxPoint as="offset" />
          </mxGeometry>
        </mxCell>
        <mxCell id="EvSk-rvQm_N_wr-4obPq-0" value="const CustomContainer = new Container();" style="rounded=1;whiteSpace=wrap;html=1;fontFamily=Verdana;fontSize=10;" vertex="1" parent="nadW0IsCXPA7-B_XMFtG-1">
          <mxGeometry x="160" y="340" width="280" height="80" as="geometry" />
        </mxCell>
        <mxCell id="EvSk-rvQm_N_wr-4obPq-8" value="Parent declaration" style="edgeStyle=orthogonalEdgeStyle;rounded=1;orthogonalLoop=1;jettySize=auto;html=1;exitX=1;exitY=0.5;exitDx=0;exitDy=0;entryX=0;entryY=0.5;entryDx=0;entryDy=0;fontFamily=Verdana;fontSize=10;" edge="1" parent="nadW0IsCXPA7-B_XMFtG-1" source="EvSk-rvQm_N_wr-4obPq-1" target="EvSk-rvQm_N_wr-4obPq-3">
          <mxGeometry x="-0.5556" y="20" relative="1" as="geometry">
            <Array as="points">
              <mxPoint x="1360" y="300" />
              <mxPoint x="1360" y="380" />
            </Array>
            <mxPoint as="offset" />
          </mxGeometry>
        </mxCell>
        <mxCell id="EvSk-rvQm_N_wr-4obPq-1" value="const IntegrationContainer1 = new Container();&lt;br style=&quot;font-size: 10px;&quot;&gt;IntegrationContainer1.parent = CoreContainer;" style="rounded=1;whiteSpace=wrap;html=1;fontFamily=Verdana;fontSize=10;" vertex="1" parent="nadW0IsCXPA7-B_XMFtG-1">
          <mxGeometry x="840" y="260" width="280" height="80" as="geometry" />
        </mxCell>
        <mxCell id="EvSk-rvQm_N_wr-4obPq-9" value="Parent declaration" style="edgeStyle=orthogonalEdgeStyle;rounded=1;orthogonalLoop=1;jettySize=auto;html=1;exitX=1;exitY=0.5;exitDx=0;exitDy=0;entryX=0;entryY=0.5;entryDx=0;entryDy=0;fontFamily=Verdana;fontSize=10;" edge="1" parent="nadW0IsCXPA7-B_XMFtG-1" source="EvSk-rvQm_N_wr-4obPq-2" target="EvSk-rvQm_N_wr-4obPq-3">
          <mxGeometry x="-0.5556" y="20" relative="1" as="geometry">
            <Array as="points">
              <mxPoint x="1360" y="460" />
              <mxPoint x="1360" y="380" />
            </Array>
            <mxPoint as="offset" />
          </mxGeometry>
        </mxCell>
        <mxCell id="EvSk-rvQm_N_wr-4obPq-2" value="const IntegrationContainer2 = new Container();&lt;br style=&quot;font-size: 10px;&quot;&gt;IntegrationContainer2.parent = CoreContainer;" style="rounded=1;whiteSpace=wrap;html=1;fontFamily=Verdana;fontSize=10;" vertex="1" parent="nadW0IsCXPA7-B_XMFtG-1">
          <mxGeometry x="840" y="420" width="280" height="80" as="geometry" />
        </mxCell>
        <mxCell id="EvSk-rvQm_N_wr-4obPq-3" value="const CoreContainer = new Container();" style="rounded=1;whiteSpace=wrap;html=1;fontFamily=Verdana;fontSize=10;" vertex="1" parent="nadW0IsCXPA7-B_XMFtG-1">
          <mxGeometry x="1400" y="320" width="360" height="120" as="geometry" />
        </mxCell>
        <mxCell id="EvSk-rvQm_N_wr-4obPq-4" value="Component" style="rounded=0;whiteSpace=wrap;html=1;fontFamily=Verdana;fontSize=10;" vertex="1" parent="nadW0IsCXPA7-B_XMFtG-1">
          <mxGeometry x="120" y="760" width="360" height="120" as="geometry" />
        </mxCell>
        <mxCell id="EvSk-rvQm_N_wr-4obPq-12" value="Custom Container has the ability to change which container is its parent and thus change the direction of resolution" style="text;html=1;strokeColor=none;fillColor=none;align=center;verticalAlign=middle;whiteSpace=wrap;rounded=0;fontFamily=Verdana;fontSize=10;" vertex="1" parent="nadW0IsCXPA7-B_XMFtG-1">
          <mxGeometry x="200" y="190" width="240" height="90" as="geometry" />
        </mxCell>
        <mxCell id="EvSk-rvQm_N_wr-4obPq-13" value="If a class in the custom container should only be resolved when a certain integration is in effect. That class can be registrered with the .whenParent classifier." style="text;html=1;strokeColor=none;fillColor=none;align=center;verticalAlign=middle;whiteSpace=wrap;rounded=0;fontFamily=Verdana;fontSize=10;" vertex="1" parent="nadW0IsCXPA7-B_XMFtG-1">
          <mxGeometry x="520" y="760" width="240" height="120" as="geometry" />
        </mxCell>
        <mxCell id="EvSk-rvQm_N_wr-4obPq-15" value="CustomContainer.parent = IntegrationContainer1;" style="html=1;fontFamily=Verdana;fontSize=10;" vertex="1" parent="nadW0IsCXPA7-B_XMFtG-1">
          <mxGeometry x="520" y="260" width="280" height="80" as="geometry" />
        </mxCell>
        <mxCell id="EvSk-rvQm_N_wr-4obPq-16" value="CustomContainer.parent = IntegrationContainer1;" style="html=1;fontFamily=Verdana;fontSize=10;" vertex="1" parent="nadW0IsCXPA7-B_XMFtG-1">
          <mxGeometry x="520" y="420" width="280" height="80" as="geometry" />
        </mxCell>
        <mxCell id="EvSk-rvQm_N_wr-4obPq-18" value="&lt;span style=&quot;font-size: 9px&quot;&gt;CustomContainer.bind(IService)&lt;br&gt;.to(CustomService).&lt;/span&gt;" style="shape=process;whiteSpace=wrap;html=1;backgroundOutline=1;size=0.029411764705882353;fontFamily=Verdana;fontSize=9;" vertex="1" parent="nadW0IsCXPA7-B_XMFtG-1">
          <mxGeometry x="80" y="440" width="340" height="60" as="geometry" />
        </mxCell>
      </root>
    </mxGraphModel>
  </diagram>
</mxfile>
